<?xml version="1.0" encoding="UTF-8"?>
<!DOCTYPE svg PUBLIC "-//W3C//DTD SVG 1.0//EN" "http://www.w3.org/TR/2001/REC-SVG-20010904/DTD/svg10.dtd">
<!-- Creator: CorelDRAW 2018 (64 Bit Versión de evaluación) -->
<svg xmlns="http://www.w3.org/2000/svg" xml:space="preserve" width="436px" height="302px" version="1.0" style="shape-rendering:geometricPrecision; text-rendering:geometricPrecision; image-rendering:optimizeQuality; fill-rule:evenodd; clip-rule:evenodd"
viewBox="0 0 437.108 303.073"
 xmlns:xlink="http://www.w3.org/1999/xlink">
 <defs>
  <style type="text/css">
   <![CDATA[
    .fil1 {fill:#003366}
    .fil5 {fill:#02A1E3}
    .fil0 {fill:#FEFEFE}
    .fil4 {fill:white}
    .fil6 {fill:#003366;fill-rule:nonzero}
    .fil2 {fill:#02A1E3;fill-rule:nonzero}
    .fil3 {fill:#FEFEFE;fill-rule:nonzero}
    .fil7 {fill:white;fill-rule:nonzero}
   ]]>
  </style>
 </defs>
 <g id="Capa_x0020_1">
  <metadata id="CorelCorpID_0Corel-Layer"/>
  <path class="fil0" d="M34.327 46.825l208.983 0 0 -38.163c0,-0.186 0.013,-0.369 0.037,-0.547 0.161,-2.289 1.037,-4.191 2.467,-5.611 1.538,-1.527 3.614,-2.394 6.032,-2.488 0.053,-0.002 0.105,-0.003 0.157,-0.003l0 -0.013 58.958 0c0.174,0 0.346,0.011 0.513,0.032 2.272,0.122 4.154,0.784 5.607,2.107 1.634,1.486 2.502,3.55 2.508,6.309l0.016 0 0 38.378 2.444 0c0.019,-2.567 0.038,-4.641 0.057,-6.713 0.028,-3.08 0.056,-6.162 0.084,-10.683l0 0c-0.009,-3.114 1.034,-5.824 2.989,-7.817 1.881,-1.919 4.517,-3.074 7.769,-3.171 0.037,-0.002 0.073,-0.002 0.11,-0.002l0 -0.015 93.078 0c0.094,0 0.038,0.007 0.447,0.022 0.028,0.001 0.056,0.002 0.085,0.004 3.69,0.154 6.316,1.8 8.031,3.979 1.665,2.116 2.408,4.747 2.408,6.952 0,0.155 -0.007,-0.044 -0.02,0.336 0,0.003 0,0.007 0,0.009l-0.107 35.663c-0.047,15.744 -0.096,31.61 -0.142,46.532l0.005 0.229c0.001,0.014 0,0.028 0.001,0.042 0.082,5.384 -1.683,10.146 -4.788,13.627 -3.177,3.561 -7.703,5.757 -13.057,5.91 -0.033,0.001 -0.067,0.001 -0.1,0.001l-0.134 0.002c-0.045,0.002 -0.089,0.002 -0.135,0l-18.769 0.044 0 1.404 14.477 -0.184c0.031,-0.001 0.062,-0.001 0.094,0l0 0c0.002,0 0.003,0 0.004,0 0.01,0 0.021,0 0.03,0 0.025,0.001 0.05,0.002 0.074,0.002l0.007 0c1.873,0.065 4.485,1.048 6.352,2.9 1.503,1.492 2.639,3.547 2.76,6.159 0.005,0.1 0.005,0.2 0.002,0.299 0.112,9.791 0.013,19.57 -0.084,29.348 -0.116,11.541 -0.232,23.085 0,34.628 0.001,0.052 0,0.104 -0.001,0.157l0.001 0c-0.001,0.009 -0.001,0.018 -0.001,0.026 -0.001,0.013 -0.001,0.025 -0.001,0.037 -0.121,4.573 -1.751,8.247 -4.373,10.859 -2.793,2.784 -6.639,4.271 -10.925,4.289l0 0.001 -8.415 0.08 0 19.515c0,0.586 -0.125,1.142 -0.351,1.643 -6.745,19.343 -28.819,34.478 -59.298,44.684 -32.144,10.764 -73.914,16.203 -116.742,15.365 -3.328,-0.065 -7.294,-0.101 -11.847,-0.143 -57.54,-0.529 -206.496,-1.902 -211.608,-68.762 -0.008,-0.099 -0.011,-0.199 -0.011,-0.297l-0.005 0 0 -152.247c0,-8.957 4.05,-17.584 10.365,-23.979 6.264,-6.344 14.808,-10.537 23.884,-10.72 0.026,0 0.052,0 0.078,0l0 -0.015 0 -0.001zm398.76 -17.232c-0.081,26.472 -0.166,55.924 -0.249,82.397 0.254,8.89 -5.589,15.603 -14.151,15.743l-22.84 0.053 0 9.445 18.539 -0.236c1.802,0.026 5.115,1.825 5.273,5.234 0.25,21.393 -0.511,42.788 -0.082,64.181 -0.168,7.196 -5.066,11.276 -11.33,11.29l-12.4 0.12 0 23.476c-12.762,37.802 -90.489,59.294 -172.297,57.691 -43.646,-0.854 -214.309,3.135 -219.534,-65.202l0 -152.247c0,-15.691 14.287,-30.377 30.311,-30.698l212.999 0c0,-7.366 0,-34.813 0,-42.179 0.089,-2.839 1.928,-4.538 4.678,-4.647 19.652,0 39.305,0 58.957,0 2.962,0.07 4.621,1.355 4.628,4.433l0 42.393 10.434 0c0.056,-9.135 0.112,-12.259 0.168,-21.395 -0.022,-4.03 2.489,-6.873 6.868,-7.004l93.078 0c5.093,0 7.051,4.237 6.951,7.152l-0.001 0zm-18.546 103.405c0.001,0 0.004,0 0.007,0l-0.007 0z"/>
  <path class="fil1" d="M38.209 54.129l209.139 0 0 15.078c0,1.646 1.348,2.998 2.997,2.998l56.287 0c4.945,0 8.992,-4.047 8.992,-8.993l0 -9.083 10.991 0 0 68.767c0,2.661 2.182,4.847 4.849,4.847l61.178 0 0 9.564 -50.14 0c-1.936,0 -3.526,1.591 -3.526,3.526l0 73.273c0,1.936 1.586,3.526 3.526,3.526l50.14 0 0 15.032c-3.363,52.488 -122.052,63.88 -169.404,63.099 -99.235,-1.638 -208.377,-8.537 -216.018,-63.838l0 -146.755c0.267,-18.557 13.627,-30.693 30.989,-31.042l0 0.001z"/>
  <g id="_2414475094656">
   <path class="fil2" d="M29.935 125.138c1.57,0.294 4.12,0.539 7.651,0.539 5.248,0 9.171,-0.834 11.868,-2.747 2.403,-1.716 4.218,-4.315 4.218,-7.7 0,-3.384 -1.765,-6.13 -4.953,-7.16l0 -0.147c3.481,-1.03 6.523,-3.874 6.523,-7.995 0,-2.55 -1.324,-4.609 -3.287,-5.786 -2.158,-1.472 -4.757,-1.914 -7.994,-1.914 -2.992,0 -5.836,0.295 -7.994,0.736l-6.033 32.173 0.001 0.001zm11.82 -27.514c0.49,-0.147 1.373,-0.196 2.451,-0.196 2.6,0 4.169,1.275 4.169,3.433 0,2.942 -2.451,4.757 -6.229,4.757l-1.911 0 1.52 -7.994zm-2.551 12.947l1.863 0c3.189,0 5.543,1.226 5.543,4.365 0,3.63 -3.09,5.445 -6.818,5.445 -0.931,0 -1.667,-0.05 -2.403,-0.147l1.815 -9.663 0 0z"/>
   <path id="_1" class="fil2" d="M62.844 125.481l4.61 -23.983 -6.817 0 -4.562 23.983 6.769 0zm2.109 -26.925c2.108,0 3.923,-1.423 3.972,-3.924 0,-1.962 -1.324,-3.384 -3.384,-3.384 -2.158,0 -3.875,1.717 -3.875,3.923 0,2.011 1.276,3.385 3.189,3.385l0.098 0z"/>
   <path id="_2" class="fil2" d="M86.826 119.204c-1.765,0.882 -3.775,1.421 -6.18,1.421 -1.961,0 -3.383,-0.637 -4.217,-1.765 -0.49,-0.736 -0.687,-1.864 -0.687,-2.551 8.73,0.246 14.469,-2.059 14.469,-8.337 -0.05,-4.12 -3.041,-7.013 -7.75,-7.013 -8.386,0 -13.242,7.945 -13.242,15.203 0,5.885 3.139,9.76 9.711,9.76 2.697,0 5.738,-0.49 8.337,-1.717l-0.441 -5.002 0 0.001zm-2.893 -11.085c0,2.354 -2.747,3.286 -7.553,3.188 0.539,-2.599 2.354,-5.248 5.199,-5.248 1.472,0 2.354,0.834 2.354,2.06l0 0z"/>
   <path id="_3" class="fil2" d="M98.008 125.481l2.108 -11.28c0.933,-5.101 3.385,-7.749 5.445,-7.749 1.569,0 2.108,1.078 2.108,2.599 0,0.883 -0.098,1.815 -0.244,2.648l-2.6 13.782 6.769 0 2.697 -14.125c0.245,-1.324 0.441,-3.04 0.441,-4.218 0,-3.776 -1.961,-6.179 -5.739,-6.179 -2.991,0 -5.737,1.373 -7.798,4.218l-0.097 0 0.392 -3.679 -5.935 0c-0.343,2.207 -0.686,4.856 -1.275,7.799l-3.089 16.184 6.817 0 0 0z"/>
   <path id="_4" class="fil2" d="M118.361 101.498l3.237 23.983 6.867 0 12.605 -23.983 -7.357 0 -4.659 10.79c-1.227,2.943 -1.865,4.611 -2.502,6.474l-0.147 0c-0.05,-1.913 -0.197,-3.58 -0.344,-6.62l-0.687 -10.643 -7.013 0 0 -0.001z"/>
   <path id="_5" class="fil2" d="M157.694 119.204c-1.765,0.882 -3.775,1.421 -6.179,1.421 -1.962,0 -3.384,-0.637 -4.218,-1.765 -0.49,-0.736 -0.686,-1.864 -0.686,-2.551 8.73,0.246 14.468,-2.059 14.468,-8.337 -0.048,-4.12 -3.04,-7.013 -7.749,-7.013 -8.387,0 -13.242,7.945 -13.242,15.203 0,5.885 3.139,9.76 9.711,9.76 2.698,0 5.738,-0.49 8.338,-1.717l-0.443 -5.002 0 0.001zm-2.893 -11.085c0,2.354 -2.747,3.286 -7.552,3.188 0.539,-2.599 2.354,-5.248 5.198,-5.248 1.472,0 2.354,0.834 2.354,2.06l0 0z"/>
   <path id="_6" class="fil2" d="M168.877 125.481l2.109 -11.28c0.931,-5.101 3.384,-7.749 5.444,-7.749 1.57,0 2.108,1.078 2.108,2.599 0,0.883 -0.097,1.815 -0.245,2.648l-2.599 13.782 6.768 0 2.698 -14.125c0.245,-1.324 0.441,-3.04 0.441,-4.218 0,-3.776 -1.962,-6.179 -5.738,-6.179 -2.992,0 -5.738,1.373 -7.798,4.218l-0.098 0 0.392 -3.679 -5.935 0c-0.343,2.207 -0.686,4.856 -1.275,7.799l-3.09 16.184 6.817 0 0.001 0z"/>
   <path id="_7" class="fil2" d="M194.724 125.481l4.609 -23.983 -6.817 0 -4.561 23.983 6.769 0zm2.108 -26.925c2.109,0 3.923,-1.423 3.973,-3.924 0,-1.962 -1.324,-3.384 -3.384,-3.384 -2.158,0 -3.874,1.717 -3.874,3.923 0,2.011 1.274,3.385 3.187,3.385l0.098 0 0 0z"/>
   <path id="_8" class="fil2" d="M220.08 90.905l-2.011 10.692c-0.883,-0.393 -2.011,-0.589 -2.942,-0.589 -8.632,0 -14.174,8.043 -14.174,16.38 0,5.445 2.942,8.584 6.817,8.584 2.59,0 5.329,-1.324 7.242,-4.268l0.099 0 -0.344 3.777 6.04 0c0.148,-2.697 0.589,-5.983 1.129,-8.877l4.904 -25.699 -6.76 0 0 0zm-4.382 23.541c-0.882,3.973 -2.992,6.033 -4.847,6.033 -1.913,0 -2.935,-1.52 -2.935,-4.218 0,-4.414 2.738,-10.103 6.752,-10.103 1.03,0 1.913,0.343 2.452,0.784l-1.422 7.504 0 0z"/>
   <path id="_9" class="fil2" d="M240.188 100.959c-8.142,0 -13.537,7.357 -13.537,15.547 0,5.248 3.237,9.466 9.319,9.466 7.994,0 13.389,-7.161 13.389,-15.547 0,-4.855 -2.845,-9.466 -9.171,-9.466zm-0.932 5.199c2.403,0 3.188,2.059 3.188,4.071 0,4.168 -2.011,10.544 -5.592,10.544 -2.305,0 -3.286,-1.962 -3.286,-4.414 0,-3.874 2.011,-10.201 5.689,-10.201l0.001 0z"/>
  </g>
  <path id="_10" class="fil3" d="M284.276 126.4c-0.047,-2.759 0.374,-7.203 0.935,-10.103l2.432 -12.207c-1.777,-0.561 -4.491,-1.076 -7.063,-1.076 -10.851,0 -15.481,8.746 -15.481,16.229 0,4.538 2.479,7.625 6.361,7.625 2.385,0 5.098,-1.217 7.109,-4.771l0.14 0c-0.093,1.543 -0.233,2.992 -0.28,4.302l5.847 0 0 0.001zm-5.005 -12.348c-0.982,5.192 -3.181,7.577 -5.098,7.577 -1.732,0 -2.432,-1.497 -2.432,-3.694 0,-3.977 2.852,-10.01 7.062,-10.01 0.561,0 1.122,0.047 1.637,0.187l-1.169 5.94 0 0z"/>
  <g id="_2414475102016">
   <path id="_11" class="fil3" d="M36.27 165.001l2.092 -11.19c0.924,-5.06 3.357,-7.687 5.4,-7.687 1.557,0 2.092,1.071 2.092,2.579 0,0.875 -0.098,1.8 -0.243,2.627l-2.579 13.671 6.715 0 2.676 -14.012c0.242,-1.313 0.437,-3.016 0.437,-4.184 0,-3.746 -1.946,-6.129 -5.692,-6.129 -2.968,0 -5.692,1.361 -7.735,4.183l-0.098 0 0.389 -3.648 -5.887 0c-0.34,2.189 -0.681,4.816 -1.265,7.735l-3.065 16.055 6.763 0 0 0z"/>
   <path id="_12" class="fil3" d="M72.653 141.21l-2.246 11.823c-0.827,4.33 -3.017,6.956 -5.149,6.956 -1.557,0 -2.132,-1.069 -2.132,-2.481 0,-0.924 0.146,-2.14 0.389,-3.357l2.473 -12.941 -6.706 0 -2.578 13.428c-0.292,1.654 -0.487,3.163 -0.487,4.524 0,4.087 1.995,6.326 5.595,6.326 2.717,0 5.393,-1.266 7.623,-4.185l0.096 0 -0.34 3.698 5.896 0c0.291,-2.189 0.681,-4.816 1.265,-7.736l3.016 -16.055 -6.714 0 -0.001 0z"/>
   <path id="_13" class="fil3" d="M98.689 158.774c-1.751,0.875 -3.746,1.411 -6.129,1.411 -1.947,0 -3.357,-0.633 -4.184,-1.751 -0.487,-0.73 -0.681,-1.85 -0.681,-2.53 8.66,0.243 14.352,-2.044 14.352,-8.271 -0.049,-4.087 -3.017,-6.957 -7.687,-6.957 -8.32,0 -13.136,7.881 -13.136,15.081 0,5.838 3.114,9.683 9.632,9.683 2.677,0 5.693,-0.488 8.271,-1.704l-0.438 -4.962 0 0zm-2.869 -10.996c0,2.335 -2.725,3.259 -7.493,3.163 0.535,-2.579 2.335,-5.207 5.157,-5.207 1.459,0 2.335,0.828 2.335,2.044l0.001 0z"/>
   <path id="_14" class="fil3" d="M102.29 163.784c1.266,0.876 3.843,1.606 6.617,1.655 6.033,0.049 10.362,-2.969 10.362,-8.32 0,-2.87 -2.189,-4.913 -4.816,-6.422 -1.703,-0.925 -2.579,-1.703 -2.579,-2.773 0,-1.362 1.217,-2.238 3.114,-2.238 1.751,0 3.26,0.487 4.185,0.925l1.557 -4.768c-1.071,-0.633 -3.066,-1.119 -5.644,-1.119 -5.888,0 -9.925,3.357 -9.925,8.075 0,2.677 1.898,4.72 4.427,6.18 2.043,1.167 2.773,1.994 2.773,3.211 0,1.265 -1.021,2.286 -2.919,2.286 -2.092,0.049 -4.281,-0.827 -5.498,-1.46l-1.654 4.768z"/>
   <path id="_15" class="fil3" d="M127.978 136.832l-0.827 4.378 -2.968 0 -0.973 5.011 2.968 0 -1.897 9.877c-0.341,1.653 -0.487,2.968 -0.487,4.183 0,3.065 1.947,5.158 5.936,5.158 1.411,0 3.016,-0.146 3.989,-0.487l0.779 -5.206c-0.584,0.098 -1.265,0.098 -1.8,0.098 -1.411,0 -1.995,-0.73 -1.995,-1.995 0,-0.73 0.146,-1.8 0.341,-2.724l1.751 -8.903 4.914 0 0.973 -5.011 -4.914 0 1.216 -6.373 -7.005 1.994 -0.001 0z"/>
   <path id="_16" class="fil3" d="M144.617 165.001l1.751 -9.487c0.876,-4.476 3.066,-8.174 7.006,-8.174 0.39,0 0.778,0 1.07,0.049l1.265 -6.568c-0.34,-0.049 -0.778,-0.097 -1.167,-0.097 -2.92,0 -5.401,1.995 -7.103,5.108l-0.147 0c0.195,-1.606 0.292,-3.114 0.39,-4.622l-5.789 0c-0.243,2.092 -0.584,5.742 -1.217,9.05l-2.773 14.741 6.714 0 0 0z"/>
   <path id="_17" class="fil3" d="M168.942 140.675c-8.076,0 -13.427,7.298 -13.427,15.423 0,5.205 3.21,9.389 9.244,9.389 7.93,0 13.281,-7.104 13.281,-15.423 0,-4.816 -2.822,-9.389 -9.098,-9.389l0 0zm-0.924 5.157c2.384,0 3.162,2.043 3.162,4.038 0,4.136 -1.994,10.46 -5.546,10.46 -2.286,0 -3.26,-1.946 -3.26,-4.378 0,-3.843 1.995,-10.12 5.644,-10.12z"/>
   <g>
    <path id="_18" class="fil3" d="M197.21 165.51l2.121 -11.35c0.939,-5.132 3.405,-7.798 5.478,-7.798 1.579,0 2.122,1.087 2.122,2.616 0,0.889 -0.099,1.826 -0.246,2.665l-2.616 13.867 6.811 0 2.714 -14.212c0.246,-1.333 0.444,-3.06 0.444,-4.244 0,-3.801 -1.974,-6.219 -5.774,-6.219 -3.01,0 -5.774,1.383 -7.847,4.245l-0.098 0 0.395 -3.702 -5.971 0c-0.346,2.221 -0.691,4.886 -1.284,7.847l-3.108 16.285 6.859 0 0 0z"/>
    <path id="_19" class="fil3" d="M234.114 141.378l-2.278 11.992c-0.839,4.393 -3.06,7.057 -5.223,7.057 -1.579,0 -2.163,-1.085 -2.163,-2.516 0,-0.938 0.148,-2.172 0.395,-3.405l2.509 -13.127 -6.802 0 -2.616 13.62c-0.296,1.678 -0.493,3.208 -0.493,4.59 0,4.145 2.023,6.415 5.675,6.415 2.756,0 5.47,-1.283 7.732,-4.244l0.098 0 -0.345 3.75 5.979 0c0.296,-2.221 0.691,-4.885 1.283,-7.846l3.06 -16.286 -6.81 0 -0.001 0z"/>
    <path id="_20" class="fil3" d="M260.524 159.193c-1.776,0.888 -3.799,1.431 -6.218,1.431 -1.974,0 -3.405,-0.641 -4.244,-1.776 -0.493,-0.741 -0.691,-1.876 -0.691,-2.566 8.785,0.246 14.558,-2.073 14.558,-8.39 -0.049,-4.145 -3.059,-7.057 -7.797,-7.057 -8.438,0 -13.323,7.995 -13.323,15.299 0,5.921 3.158,9.821 9.771,9.821 2.714,0 5.773,-0.495 8.388,-1.728l-0.443 -5.034 -0.001 0zm-2.911 -11.152c0,2.369 -2.763,3.306 -7.6,3.207 0.543,-2.615 2.368,-5.28 5.231,-5.28 1.481,0 2.369,0.839 2.369,2.073l0 0z"/>
    <path id="_21" class="fil3" d="M266.594 141.378l3.257 24.132 6.909 0 12.683 -24.132 -7.403 0 -4.688 10.858c-1.233,2.96 -1.875,4.638 -2.517,6.513l-0.148 0c-0.049,-1.924 -0.197,-3.602 -0.345,-6.662l-0.691 -10.709 -7.057 0 0 0z"/>
    <path id="_22" class="fil3" d="M302.125 140.835c-8.192,0 -13.62,7.403 -13.62,15.644 0,5.281 3.257,9.525 9.376,9.525 8.044,0 13.472,-7.206 13.472,-15.644 0,-4.886 -2.862,-9.525 -9.229,-9.525l0.001 0zm-0.938 5.232c2.419,0 3.208,2.073 3.208,4.095 0,4.195 -2.023,10.611 -5.625,10.611 -2.32,0 -3.307,-1.975 -3.307,-4.442 0,-3.899 2.023,-10.264 5.724,-10.264z"/>
   </g>
  </g>
  <g id="_2414475109504">
   <path id="_23" class="fil2" d="M33.326 212.783c1.463,1.012 4.445,1.857 7.651,1.913 6.976,0.056 11.983,-3.433 11.983,-9.621 0,-3.319 -2.531,-5.681 -5.569,-7.426 -1.97,-1.068 -2.982,-1.969 -2.982,-3.206 0,-1.576 1.407,-2.588 3.601,-2.588 2.025,0 3.769,0.562 4.837,1.069l1.8 -5.513c-1.237,-0.732 -3.543,-1.294 -6.525,-1.294 -6.806,0 -11.476,3.882 -11.476,9.338 0,3.095 2.195,5.457 5.119,7.145 2.364,1.35 3.207,2.307 3.207,3.713 0,1.463 -1.182,2.644 -3.376,2.644 -2.418,0.056 -4.95,-0.957 -6.357,-1.688l-1.912 5.513 -0.001 0.001z"/>
   <path id="_24" class="fil2" d="M63.762 214.189l5.288 -27.51 -7.82 0 -5.232 27.51 7.764 0zm2.418 -30.885c2.419,0 4.5,-1.632 4.557,-4.5 0,-2.251 -1.519,-3.882 -3.881,-3.882 -2.475,0 -4.444,1.969 -4.444,4.5 0,2.307 1.463,3.882 3.656,3.882l0.112 0 0 0z"/>
   <path id="_25" class="fil2" d="M77.15 181.616l-0.956 5.063 -3.432 0 -1.125 5.795 3.431 0 -2.193 11.42c-0.395,1.913 -0.563,3.432 -0.563,4.838 0,3.544 2.25,5.964 6.863,5.964 1.632,0 3.488,-0.17 4.613,-0.563l0.901 -6.02c-0.675,0.113 -1.463,0.113 -2.082,0.113 -1.632,0 -2.307,-0.844 -2.307,-2.307 0,-0.844 0.169,-2.081 0.394,-3.151l2.026 -10.295 5.681 0 1.125 -5.794 -5.681 0 1.406 -7.37 -8.101 2.307 0 0z"/>
   <path id="_26" class="fil2" d="M96.39 214.189l5.288 -27.51 -7.819 0 -5.232 27.51 7.763 0zm2.419 -30.885c2.419,0 4.501,-1.632 4.557,-4.5 0,-2.251 -1.519,-3.882 -3.882,-3.882 -2.475,0 -4.444,1.969 -4.444,4.5 0,2.307 1.462,3.882 3.657,3.882l0.112 0z"/>
   <path id="_27" class="fil2" d="M119.286 186.061c-9.338,0 -15.526,8.438 -15.526,17.833 0,6.02 3.712,10.857 10.689,10.857 9.17,0 15.358,-8.213 15.358,-17.833 0,-5.569 -3.263,-10.857 -10.521,-10.857zm-1.068 5.963c2.757,0 3.656,2.362 3.656,4.669 0,4.782 -2.306,12.095 -6.413,12.095 -2.644,0 -3.769,-2.25 -3.769,-5.063 0,-4.444 2.306,-11.701 6.526,-11.701l0 0z"/>
   <path id="_28" class="fil2" d="M143.815 186.679l2.194 27.51 7.201 0 4.5 -9.958c1.126,-2.475 1.857,-4.781 3.151,-8.494l0.169 0c-0.113,3.319 -0.113,6.02 0,8.72l0.674 9.732 7.202 0 12.995 -27.509 -7.763 0 -4.557 11.645c-1.238,3.375 -2.082,5.85 -2.87,8.833l-0.168 0c0.168,-2.926 0.112,-5.176 0.056,-8.608l-0.507 -11.87 -6.244 0 -5.401 12.207c-1.181,2.926 -2.25,5.401 -3.15,8.271l-0.169 0c0.282,-2.983 0.394,-5.345 0.451,-8.664l0.168 -11.815 -7.932 0z"/>
   <path id="_29" class="fil2" d="M200.971 206.988c-2.025,1.013 -4.331,1.631 -7.088,1.631 -2.249,0 -3.881,-0.73 -4.838,-2.024 -0.563,-0.844 -0.787,-2.138 -0.787,-2.926 10.014,0.282 16.596,-2.362 16.596,-9.563 -0.056,-4.726 -3.488,-8.045 -8.889,-8.045 -9.62,0 -15.19,9.113 -15.19,17.439 0,6.751 3.601,11.196 11.139,11.196 3.095,0 6.582,-0.564 9.564,-1.97l-0.507 -5.739 0 0.001zm-3.318 -12.714c0,2.7 -3.151,3.769 -8.664,3.657 0.619,-2.982 2.701,-6.019 5.964,-6.019 1.687,0 2.7,0.955 2.7,2.362l0 0z"/>
   <path id="_30" class="fil2" d="M213.518 174.528l-5.626 28.353c-0.281,1.407 -0.563,3.039 -0.563,4.669 0,4.613 2.926,7.202 8.945,7.202 11.533,0 17.271,-10.239 17.271,-19.577 0,-4.276 -2.025,-9.114 -7.482,-9.114 -3.207,0 -5.964,1.518 -7.876,3.938l-0.113 0 3.207 -15.471 -7.763 0 0 0zm2.811 25.034c0.845,-4.218 3.376,-7.088 5.964,-7.088 2.307,0 3.15,1.969 3.15,4.557 0,4.557 -2.981,11.87 -7.425,11.87 -1.745,0 -2.701,-1.012 -2.757,-2.869 -0.056,-1.125 0.113,-2.025 0.281,-2.982l0.787 -3.488 0 0z"/>
  </g>
  <path class="fil4" d="M344.333 139.315l69.61 0c1.842,0 3.35,1.507 3.35,3.35l0 62.91c0,5.527 -4.523,10.05 -10.05,10.05l-62.91 0c-1.842,0 -3.35,-1.507 -3.35,-3.35l0 -69.61c0,-1.842 1.507,-3.35 3.35,-3.35z"/>
  <path class="fil5" d="M333.079 25.143l92.845 0c2.417,0 4.394,1.977 4.394,4.394l0 82.511c0,7.25 -5.932,13.182 -13.181,13.182l-84.059 0c-2.417,0 -4.394,-1.978 -4.394,-4.394l0 -91.299c0,-2.417 1.978,-4.393 4.394,-4.393l0.001 -0.001z"/>
  <path class="fil1" d="M252.176 5.936l58.619 0c1.552,0 2.821,1.269 2.821,2.821l0 52.976c0,4.655 -3.809,8.463 -8.463,8.463l-52.977 0c-1.551,0 -2.82,-1.27 -2.82,-2.821l0 -58.618c0,-1.552 1.269,-2.821 2.82,-2.821z"/>
  <path class="fil6" d="M360.655 208.788c-0.245,0.122 -0.645,0.23 -1.09,0.23 -1.259,0 -2.425,-1.045 -2.425,-4.207 0,-3.164 1.29,-4.239 2.395,-4.239 0.537,0 0.798,0.108 1.044,0.216l0.26 -1c-0.214,-0.137 -0.659,-0.26 -1.289,-0.26 -1.627,0 -3.655,1.306 -3.655,5.39 0,3.517 1.444,5.144 3.47,5.144 0.646,0 1.153,-0.107 1.474,-0.276l-0.183 -0.998 -0.001 0z"/>
  <path id="_1_0" class="fil6" d="M364.402 199.497c-1.812,0 -3.04,1.858 -3.04,5.282 0,3.487 1.152,5.314 2.871,5.314 1.658,0 2.995,-1.489 2.995,-5.374 0,-3.302 -1.06,-5.221 -2.826,-5.221l0 -0.001zm-0.107 1.045c1.351,0 1.704,2.288 1.704,4.222 0,2.028 -0.353,4.285 -1.689,4.285 -1.305,0 -1.72,-2.12 -1.72,-4.254 0,-2.104 0.415,-4.253 1.705,-4.253l0 0z"/>
  <path id="_2_1" class="fil6" d="M369.715 209.97l0 -3.578c0,-2.211 -0.03,-3.532 -0.122,-4.914l0.03 0c0.368,1.289 0.814,2.472 1.228,3.516l1.967 4.976 1.12 0 0 -10.35 -1.059 0 0 3.701c0,1.797 0.046,3.133 0.138,4.76l-0.03 0c-0.354,-1.12 -0.891,-2.503 -1.322,-3.608l-1.904 -4.853 -1.12 0 0 10.35 1.074 0 0 0z"/>
  <path id="_3_2" class="fil6" d="M375.29 209.617c0.291,0.214 1.044,0.445 1.75,0.445 1.643,0 2.903,-1.122 2.903,-2.903 0,-1.15 -0.554,-2.104 -1.798,-2.978 -0.982,-0.707 -1.52,-1.107 -1.52,-2.135 0,-0.707 0.477,-1.475 1.49,-1.475 0.537,0 0.967,0.17 1.228,0.353l0.292 -1.013c-0.246,-0.185 -0.814,-0.383 -1.459,-0.383 -1.643,0 -2.733,1.151 -2.733,2.717 0,1.336 1.136,2.303 1.95,2.872 0.813,0.614 1.367,1.198 1.367,2.15 0,1.045 -0.645,1.75 -1.72,1.75 -0.522,0 -1.136,-0.184 -1.489,-0.414l-0.261 1.014 0 0z"/>
  <path id="_4_3" class="fil6" d="M381.309 199.62l0 6.895c0,2.564 1.013,3.578 2.564,3.578 1.535,0 2.641,-1.029 2.641,-3.716l0 -6.757 -1.182 0 0 6.941c0,1.813 -0.553,2.488 -1.429,2.488 -0.798,0 -1.413,-0.629 -1.413,-2.488l0 -6.941 -1.181 0 0 0z"/>
  <polygon id="_5_4" class="fil6" points="388.341,209.97 392.442,209.97 392.442,208.972 389.524,208.972 389.524,199.62 388.341,199.62 "/>
  <polygon id="_6_5" class="fil6" points="393.808,209.97 394.991,209.97 394.991,200.68 396.88,200.68 396.88,199.62 391.92,199.62 391.92,200.68 393.808,200.68 "/>
  <path id="_7_6" class="fil6" d="M400.872 206.868l0.691 3.102 1.166 0 -2.303 -10.35 -1.306 0 -2.364 10.35 1.137 0 0.69 -3.102 2.288 0 0.001 0zm-2.12 -0.952l0.537 -2.625c0.139,-0.692 0.293,-1.583 0.415,-2.366l0.062 0c0.123,0.768 0.262,1.628 0.414,2.366l0.538 2.625 -1.966 0z"/>
  <path class="fil7" d="M357.155 116.569c-0.299,0.151 -0.786,0.281 -1.328,0.281 -1.535,0 -2.956,-1.272 -2.956,-5.125 0,-3.854 1.571,-5.164 2.919,-5.164 0.654,0 0.971,0.131 1.272,0.262l0.317 -1.216c-0.261,-0.168 -0.804,-0.319 -1.572,-0.319 -1.983,0 -4.452,1.591 -4.452,6.567 0,4.285 1.758,6.267 4.228,6.267 0.786,0 1.403,-0.13 1.796,-0.337l-0.224 -1.216z"/>
  <path id="_1_7" class="fil7" d="M361.719 105.252c-2.207,0 -3.703,2.264 -3.703,6.435 0,4.247 1.402,6.473 3.498,6.473 2.02,0 3.648,-1.814 3.648,-6.547 0,-4.023 -1.291,-6.361 -3.443,-6.361l0 0zm-0.13 1.272c1.646,0 2.077,2.787 2.077,5.144 0,2.469 -0.431,5.22 -2.059,5.22 -1.589,0 -2.095,-2.582 -2.095,-5.182 0,-2.563 0.506,-5.182 2.077,-5.182z"/>
  <path id="_2_8" class="fil7" d="M374.777 118.01l1.348 0 -0.73 -12.609 -1.609 0 -1.422 5.762c-0.412,1.703 -0.693,2.9 -0.936,4.34l-0.056 0c-0.262,-1.44 -0.58,-2.675 -1.01,-4.34l-1.478 -5.762 -1.552 0 -0.749 12.609 1.291 0 0.243 -5.331c0.075,-1.796 0.15,-3.555 0.15,-5.033l0.056 0c0.244,1.459 0.617,3.013 1.029,4.621l1.478 5.669 0.917 0 1.552 -5.912c0.394,-1.478 0.73,-2.975 1.011,-4.378l0.074 0c-0.056,1.422 0.038,3.274 0.131,4.939l0.262 5.425 0 0z"/>
  <path id="_3_9" class="fil7" d="M378.089 118.01l1.441 0 0 -5.163c0.205,0.019 0.392,0.019 0.636,0.019 1.121,0 2.281,-0.468 2.974,-1.403 0.486,-0.636 0.767,-1.422 0.767,-2.581 0,-1.086 -0.318,-2.003 -0.936,-2.601 -0.654,-0.655 -1.628,-0.936 -2.787,-0.936 -0.823,0 -1.516,0.095 -2.096,0.243l0 12.422 0.001 0zm1.441 -11.393c0.186,-0.056 0.467,-0.093 0.804,-0.093 1.59,0 2.132,1.16 2.132,2.45 0,1.778 -0.954,2.713 -2.375,2.713 -0.243,0 -0.394,-0.019 -0.561,-0.056l0 -5.014 0 0z"/>
  <path id="_4_10" class="fil7" d="M385.554 118.01l1.44 0 0 -5.5 0.561 0c1.235,0 1.777,0.656 2.058,2.377 0.243,1.552 0.486,2.749 0.673,3.123l1.46 0c-0.169,-0.393 -0.43,-1.459 -0.711,-3.199 -0.281,-1.646 -0.767,-2.544 -1.702,-2.825l0 -0.037c1.271,-0.58 2.02,-1.628 2.02,-3.237 0,-0.992 -0.262,-1.833 -0.879,-2.469 -0.654,-0.636 -1.59,-0.898 -2.843,-0.898 -0.711,0 -1.46,0.075 -2.077,0.243l0 12.422 0 0zm1.44 -11.43c0.188,-0.056 0.468,-0.075 0.749,-0.075 1.552,0.019 2.15,0.917 2.15,2.377 0,1.515 -0.916,2.525 -2.301,2.525l-0.598 0 0 -4.827z"/>
  <path id="_5_11" class="fil7" d="M397.62 114.231l0.842 3.779 1.422 0 -2.806 -12.609 -1.59 0 -2.881 12.609 1.383 0 0.843 -3.779 2.787 0 0 0zm-2.581 -1.16l0.654 -3.199c0.169,-0.841 0.356,-1.927 0.505,-2.881l0.075 0c0.149,0.936 0.318,1.983 0.506,2.881l0.654 3.199 -2.394 0z"/>
  <path class="fil7" d="M266.345 58.579l-2.131 0 0 0.852 1.16 0 0 2.931c-0.081,0.04 -0.28,0.106 -0.627,0.106 -1.078,0 -2.131,-0.893 -2.131,-3.663 0,-2.784 1.212,-3.677 2.331,-3.677 0.48,0 0.799,0.094 1.039,0.213l0.227 -0.879c-0.28,-0.146 -0.72,-0.254 -1.279,-0.254 -1.586,0 -3.371,1.2 -3.384,4.691 -0.013,1.638 0.427,2.877 1.08,3.569 0.599,0.667 1.331,0.88 2.117,0.88 0.573,0 1.213,-0.147 1.598,-0.307l0 -4.462 0 0z"/>
  <polygon id="_1_12" class="fil7" points="271.008,58.139 268.757,58.139 268.757,55.182 271.155,55.182 271.155,54.289 267.731,54.289 267.731,63.268 271.314,63.268 271.314,62.376 268.757,62.376 268.757,59.005 271.008,59.005 "/>
  <path id="_2_13" class="fil7" d="M272.022 62.961c0.253,0.187 0.905,0.387 1.518,0.387 1.426,0 2.518,-0.972 2.518,-2.517 0,-1 -0.48,-1.825 -1.559,-2.584 -0.853,-0.614 -1.318,-0.96 -1.318,-1.853 0,-0.613 0.412,-1.278 1.292,-1.278 0.466,0 0.838,0.146 1.065,0.306l0.253 -0.88c-0.213,-0.159 -0.706,-0.333 -1.265,-0.333 -1.426,0 -2.372,1 -2.372,2.359 0,1.158 0.986,1.998 1.692,2.491 0.707,0.533 1.186,1.039 1.186,1.864 0,0.906 -0.559,1.519 -1.492,1.519 -0.453,0 -0.986,-0.159 -1.292,-0.359l-0.226 0.878 0 0z"/>
  <polygon id="_3_14" class="fil7" points="278.309,63.268 279.335,63.268 279.335,55.209 280.972,55.209 280.972,54.289 276.67,54.289 276.67,55.209 278.309,55.209 "/>
  <polygon id="_4_15" class="fil7" points="281.973,54.289 281.973,63.268 282.998,63.268 282.998,54.289 "/>
  <path id="_5_16" class="fil7" d="M286.887 54.183c-1.571,0 -2.637,1.611 -2.637,4.582 0,3.024 0.999,4.61 2.491,4.61 1.438,0 2.598,-1.292 2.598,-4.663 0,-2.865 -0.92,-4.529 -2.452,-4.529l0 0zm-0.093 0.906c1.173,0 1.479,1.985 1.479,3.664 0,1.758 -0.306,3.716 -1.465,3.716 -1.132,0 -1.492,-1.839 -1.492,-3.69 0,-1.824 0.36,-3.69 1.478,-3.69l0 0z"/>
  <path id="_6_17" class="fil7" d="M291.497 63.268l0 -3.104c0,-1.918 -0.026,-3.063 -0.106,-4.263l0.026 0c0.32,1.119 0.707,2.145 1.067,3.051l1.705 4.316 0.972 0 0 -8.979 -0.919 0 0 3.21c0,1.558 0.04,2.718 0.119,4.13l-0.026 0c-0.306,-0.973 -0.773,-2.172 -1.145,-3.131l-1.652 -4.21 -0.973 0 0 8.98 0.933 0 -0.001 0z"/>
  <path id="_7_18" class="fil7" d="M299.823 60.578l0.599 2.691 1.014 0 -2 -8.98 -1.132 0 -2.051 8.98 0.986 0 0.599 -2.691 1.985 0 0 0zm-1.838 -0.827l0.466 -2.278c0.12,-0.599 0.253,-1.373 0.36,-2.051l0.053 0c0.106,0.666 0.226,1.412 0.359,2.051l0.466 2.278 -1.705 0 0.001 0z"/>
  <path class="fil6" d="M392.12 168.388c-0.538,-0.837 -0.295,-1.951 0.542,-2.487 0.836,-0.537 1.95,-0.294 2.487,0.543 0.672,1.043 1.13,2.063 1.426,3.129 0.29,1.043 0.413,2.11 0.424,3.272l0.087 10.248 0.006 1.802 -8.696 8.725 -1.796 -0.026 -0.09 0 0 0.007 -14.315 0c-2.907,0 -5.538,-1.186 -7.449,-3.097 -1.91,-1.911 -3.101,-4.557 -3.125,-7.472l-0.088 -10.159c-0.009,-1.241 0.201,-2.426 0.59,-3.52 0.41,-1.151 1.018,-2.213 1.776,-3.147 0.625,-0.769 1.758,-0.886 2.528,-0.261 0.77,0.627 0.888,1.759 0.261,2.53 -0.499,0.613 -0.9,1.314 -1.169,2.076 -0.259,0.727 -0.4,1.5 -0.393,2.294l0.087 10.16c0.016,1.923 0.809,3.675 2.082,4.949 1.259,1.259 2.99,2.04 4.9,2.04l14.315 0 0 0.007 0.062 0c0.242,-0.002 0.48,-0.017 0.715,-0.044l6.163 -6.167c0.023,-0.229 0.036,-0.462 0.036,-0.697l0.007 0c-0.02,-3.407 -0.058,-6.815 -0.087,-10.221 -0.007,-0.846 -0.094,-1.612 -0.297,-2.341 -0.196,-0.708 -0.515,-1.406 -0.989,-2.144l0 0.001z"/>
  <path class="fil2" d="M367.317 149.303l23.99 0c2.003,0 3.82,1.521 5.279,3.49 2.042,2.755 3.518,6.682 3.518,7.789 0,1.619 -0.498,2.973 -1.311,4.083 -0.979,1.337 -2.4,2.27 -3.928,2.861 -1.463,0.566 -3.032,0.824 -4.388,0.824 -1.515,0 -2.876,-0.338 -3.71,-0.948 -1.223,-0.896 -1.667,-2.318 -2.135,-3.821 -0.378,-1.212 -0.782,-2.507 -1.54,-2.889 -1.002,-0.505 -2.287,-0.746 -3.593,-0.735 -1.345,0.011 -2.677,0.285 -3.717,0.806 -0.696,0.349 -1.017,1.561 -1.32,2.708 -0.407,1.544 -0.798,3.017 -2.131,3.95 -0.863,0.604 -2.284,0.943 -3.866,0.943 -1.443,0 -3.104,-0.263 -4.634,-0.847 -1.612,-0.616 -3.099,-1.598 -4.095,-3.021 -0.758,-1.082 -1.215,-2.38 -1.215,-3.914 0,-1.106 1.476,-5.034 3.518,-7.789 1.459,-1.97 3.277,-3.49 5.279,-3.49l-0.001 0zm23.99 3.395l-23.99 0c-0.741,0 -1.677,0.92 -2.56,2.111 -1.649,2.226 -2.843,5.068 -2.843,5.773 0,0.798 0.223,1.452 0.593,1.979 0.562,0.801 1.489,1.389 2.53,1.787 1.123,0.428 2.354,0.622 3.428,0.622 0.925,0 1.638,-0.115 1.93,-0.32 0.31,-0.216 0.545,-1.108 0.792,-2.042 0.493,-1.862 1.013,-3.832 3.084,-4.867 1.504,-0.755 3.364,-1.15 5.202,-1.165 1.82,-0.014 3.655,0.343 5.144,1.093 2.042,1.029 2.666,3.031 3.251,4.905 0.297,0.956 0.58,1.861 0.902,2.097 0.251,0.183 0.881,0.285 1.707,0.285 0.995,0 2.129,-0.184 3.169,-0.586 0.971,-0.376 1.852,-0.938 2.415,-1.707 0.403,-0.549 0.65,-1.237 0.65,-2.081 0,-0.705 -1.193,-3.548 -2.842,-5.774 -0.883,-1.191 -1.82,-2.111 -2.561,-2.111l-0.001 0.001z"/>
  <path class="fil2" d="M376.644 168.101l5.377 0c1.782,0 3.404,0.731 4.581,1.908 1.177,1.177 1.908,2.8 1.908,4.582l0 5.376c0,1.782 -0.731,3.405 -1.908,4.581 -1.177,1.178 -2.799,1.908 -4.581,1.908l-5.377 0c-4.057,0 -3.025,3.463 -4.973,0.714 -1.947,-2.749 -1.516,-5.421 -1.516,-7.203l0 -5.376c0,-1.782 0.731,-3.405 1.907,-4.582 1.177,-1.177 2.8,-1.908 4.582,-1.908z"/>
  <path class="fil7" d="M374.091 174.745c-0.937,0 -1.696,-0.76 -1.696,-1.697 0,-0.937 0.759,-1.698 1.696,-1.698l10.442 0c0.937,0 1.697,0.761 1.697,1.698 0,0.937 -0.76,1.697 -1.697,1.697l-10.442 0z"/>
  <path class="fil7" d="M374.091 178.826c-0.937,0 -1.696,-0.76 -1.696,-1.697 0,-0.938 0.759,-1.698 1.696,-1.698l10.442 0c0.937,0 1.697,0.76 1.697,1.698 0,0.937 -0.76,1.697 -1.697,1.697l-10.442 0z"/>
  <path class="fil7" d="M374.091 183.091c-0.937,0 -1.696,-0.76 -1.696,-1.698 0,-0.937 0.759,-1.697 1.696,-1.697l7.966 0c0.936,0 1.696,0.76 1.696,1.697 0,0.938 -0.76,1.698 -1.696,1.698l-7.966 0z"/>
  <path class="fil6" d="M370.584 34.963l17.833 0c3.621,0 6.914,1.626 9.302,4.245 2.393,2.625 3.878,6.242 3.878,10.216l0 33.718 -0.059 2.35 -12.017 12.101 -1.104 0.011 -17.833 0c-3.62,0 -6.913,-1.627 -9.3,-4.246 -2.394,-2.625 -3.879,-6.242 -3.879,-10.216l0 -33.718c0,-3.974 1.485,-7.591 3.879,-10.216 2.387,-2.619 5.68,-4.245 9.3,-4.245zm17.833 4.928l-17.833 0c-2.396,0 -4.572,1.073 -6.147,2.802 -1.572,1.723 -2.547,4.106 -2.547,6.731l0 33.42c0,2.625 0.975,5.007 2.547,6.73 1.575,1.729 3.751,2.803 6.147,2.803l17.202 0 9.326 -9.296 0 -33.657c0,-2.624 -0.975,-5.007 -2.546,-6.73 -1.576,-1.729 -3.753,-2.803 -6.149,-2.803l0 0z"/>
  <path class="fil4" d="M383.497 43.742c-0.012,2.326 -1.827,4.157 -4.116,4.157 -2.271,0 -4.075,-1.792 -4.118,-4.087 -0.062,-2.292 1.191,-3.953 -1.323,-3.901 -1.858,0.064 -1.831,-2.372 -0.028,-2.377l11.094 -0.032c1.462,-0.014 1.544,2.394 0.019,2.408 -2.69,-0.007 -1.525,1.57 -1.528,3.831l0 0.001zm-4.118 -2.274c1.138,0 2.06,0.974 2.06,2.177 0,1.203 -0.922,2.178 -2.06,2.178 -1.138,0 -2.06,-0.975 -2.06,-2.178 0,-1.203 0.923,-2.177 2.06,-2.177z"/>
  <path class="fil3" d="M373.728 77.353c-0.81,0 -1.467,-0.658 -1.467,-1.468 0,-0.811 0.656,-1.467 1.467,-1.467l11.233 0c0.81,0 1.466,0.656 1.466,1.467 0,0.81 -0.656,1.468 -1.466,1.468l-11.233 0zm0.674 -18.581l9.885 0c2.383,0 4.547,0.974 6.117,2.542 1.568,1.569 2.542,3.735 2.542,6.117l0 9.885c0,2.382 -0.974,4.548 -2.542,6.116 -1.57,1.568 -3.735,2.543 -6.117,2.543l-9.885 0c-4.647,-0.105 -3.073,3.081 -5.221,1.829 -1.569,-1.569 -3.333,-5.314 -3.438,-10.488l0 -9.885c0,-2.383 0.974,-4.549 2.542,-6.118 1.569,-1.567 3.735,-2.541 6.117,-2.541l0 0zm10.32 3.399c0.26,0.351 0.506,0.728 0.737,1.129 1.079,1.873 1.827,3.803 2.08,6.48l2.026 0 0 -2.349c0,-1.449 -0.595,-2.769 -1.552,-3.726 -0.86,-0.862 -2.014,-1.429 -3.291,-1.535l0 0.001zm-0.144 20.415c1.334,-0.073 2.542,-0.651 3.435,-1.543 0.956,-0.958 1.552,-2.278 1.552,-3.727l0 -4.014 -20.442 0 0 4.014c0,1.449 0.594,2.769 1.552,3.727 0.857,0.856 2.004,1.422 3.275,1.532l10.628 0.011 0 0zm-13.579 -12.806c0.253,-2.677 1.002,-4.606 2.08,-6.48 0.227,-0.395 0.469,-0.766 0.725,-1.113 -1.212,0.139 -2.305,0.694 -3.128,1.517 -0.958,0.958 -1.552,2.278 -1.552,3.727l0 2.349 1.875 0zm11.419 -4.733c-0.395,-0.687 -0.839,-1.257 -1.313,-1.675l0 6.408 2.897 0c-0.226,-2.04 -0.791,-3.355 -1.584,-4.733l0 0zm-4.835 -1.801c-0.529,0.426 -1.026,1.042 -1.463,1.801 -0.793,1.379 -1.357,2.693 -1.583,4.733l3.046 0 0 -6.534zm-3.855 18.12c-0.81,0 -1.467,-0.658 -1.467,-1.468 0,-0.81 0.656,-1.467 1.467,-1.467l8.297 0c0.811,0 1.468,0.656 1.468,1.467 0,0.81 -0.657,1.468 -1.468,1.468l-8.297 0z"/>
  <path class="fil2" d="M292.533 28.936c-0.464,-0.722 -0.254,-1.682 0.466,-2.145 0.722,-0.463 1.683,-0.254 2.146,0.468 0.579,0.9 0.974,1.779 1.23,2.699 0.25,0.899 0.356,1.819 0.365,2.822l0.075 8.838 0.006 1.555 -7.5 7.523 -1.55 -0.022 -0.077 0.001 0 0.007 -12.346 0c-2.508,0 -4.777,-1.023 -6.425,-2.672 -1.648,-1.647 -2.676,-3.929 -2.696,-6.443l-0.075 -8.763c-0.01,-1.071 0.172,-2.092 0.508,-3.036 0.353,-0.992 0.878,-1.909 1.531,-2.713 0.541,-0.665 1.517,-0.766 2.182,-0.225 0.665,0.539 0.765,1.516 0.225,2.181 -0.43,0.529 -0.776,1.133 -1.009,1.79 -0.224,0.627 -0.345,1.294 -0.339,1.979l0.075 8.763c0.013,1.657 0.698,3.169 1.796,4.268 1.086,1.085 2.579,1.76 4.226,1.76l12.346 0 0 0.006 0.053 0c0.208,-0.002 0.415,-0.015 0.618,-0.037l5.315 -5.32c0.02,-0.198 0.03,-0.398 0.03,-0.602l0.008 0c-0.018,-2.938 -0.05,-5.876 -0.076,-8.814 -0.007,-0.731 -0.081,-1.391 -0.256,-2.02 -0.169,-0.61 -0.443,-1.212 -0.853,-1.849l0.001 0.001z"/>
  <path class="fil7" d="M281.721 12.145c2.452,0.048 8.161,1.522 12.389,3.69 3.229,1.656 5.703,3.795 5.703,6.241l0 0.804c0,1.24 -0.391,2.304 -1.037,3.201 -0.853,1.184 -2.139,2.03 -3.525,2.57 -1.334,0.521 -2.777,0.769 -4.004,0.769 -1.228,0 -2.322,-0.261 -3.015,-0.76 -1.061,-0.763 -1.476,-1.995 -1.91,-3.288 -0.364,-1.082 -0.749,-2.227 -1.478,-2.606 -0.893,-0.462 -2.077,-0.678 -3.277,-0.663 -1.22,0.015 -2.424,0.27 -3.317,0.749 -0.676,0.364 -0.998,1.442 -1.304,2.468 -0.391,1.309 -0.765,2.562 -1.891,3.35 -0.71,0.497 -1.853,0.762 -3.137,0.762 -1.277,0 -2.774,-0.247 -4.146,-0.772 -1.439,-0.552 -2.765,-1.42 -3.626,-2.65 -0.617,-0.883 -0.987,-1.923 -0.987,-3.13l0 -0.805c0,-0.052 0.003,-0.103 0.009,-0.154 0.121,-2.861 3.666,-5.349 7.781,-7.089 3.882,-1.642 8.35,-2.695 10.62,-2.695l0.152 0.008zm11.183 6.05c-3.896,-1.997 -9.054,-3.355 -11.231,-3.4l-0.104 0.005c-1.996,0 -6.024,0.967 -9.591,2.476 -3.261,1.379 -6.066,3.118 -6.16,4.725l0.002 0.879c0,0.633 0.188,1.168 0.498,1.613 0.523,0.745 1.408,1.303 2.4,1.682 1.059,0.405 2.214,0.596 3.201,0.596 0.77,0 1.363,-0.095 1.618,-0.273 0.359,-0.251 0.605,-1.076 0.862,-1.936 0.46,-1.543 0.944,-3.162 2.593,-4.049 1.267,-0.68 2.913,-1.042 4.545,-1.062 1.612,-0.019 3.243,0.292 4.523,0.956 1.684,0.873 2.247,2.545 2.778,4.123 0.296,0.878 0.577,1.714 0.943,1.978 0.229,0.164 0.765,0.251 1.466,0.251 0.934,0 2.029,-0.188 3.037,-0.582 0.956,-0.372 1.818,-0.918 2.34,-1.646 0.328,-0.455 0.527,-1.004 0.527,-1.651l0 -0.804c0,-1.256 -1.842,-2.648 -4.247,-3.881z"/>
  <path class="fil7" d="M278.645 29.247l5.682 0c1.37,0 2.614,0.56 3.516,1.462 0.901,0.901 1.461,2.145 1.461,3.516l0 5.681c0,1.37 -0.56,2.613 -1.461,3.515 -0.902,0.902 -2.148,1.462 -3.516,1.462l-5.682 0c-1.37,0 -2.615,-0.56 -3.516,-1.462 -0.901,-0.902 -1.461,-2.145 -1.461,-3.515l0 -5.681c0,-1.371 0.559,-2.615 1.461,-3.516 0.901,-0.902 2.146,-1.462 3.516,-1.462zm5.931 1.954c0.151,0.202 0.292,0.418 0.424,0.648 0.62,1.078 1.051,2.468 1.196,4.007l1.165 0 0 -1.631c0,-0.834 -0.342,-1.592 -0.892,-2.142 -0.495,-0.495 -1.159,-0.821 -1.893,-0.882zm1.644 6.679c-0.115,1.654 -0.56,3.154 -1.22,4.297 -0.156,0.272 -0.326,0.526 -0.506,0.758 0.766,-0.042 1.461,-0.374 1.974,-0.887 0.551,-0.55 0.892,-1.309 0.892,-2.142l0 -2.026 -1.141 0 0.001 0zm-7.834 5.048c-0.178,-0.231 -0.346,-0.481 -0.501,-0.751 -0.659,-1.144 -1.103,-2.643 -1.22,-4.297l-1.053 0 0 2.026c0,0.832 0.342,1.592 0.892,2.142 0.493,0.493 1.152,0.818 1.883,0.88l-0.001 0zm-1.697 -7.072c0.146,-1.538 0.575,-2.929 1.196,-4.007 0.13,-0.225 0.27,-0.44 0.417,-0.639 -0.697,0.081 -1.326,0.398 -1.799,0.873 -0.55,0.55 -0.891,1.308 -0.891,2.142l0 1.631 1.077 0 0 0zm6.564 -3.002c-0.227,-0.395 -0.482,-0.722 -0.755,-0.963l0 3.965 1.665 0c-0.13,-1.173 -0.455,-2.209 -0.91,-3.001l0 -0.001zm-2.779 -1.036c-0.305,0.246 -0.591,0.6 -0.842,1.037 -0.455,0.792 -0.78,1.828 -0.909,3.001l1.751 0 0 -4.038zm-1.78 6.062c0.106,1.292 0.445,2.436 0.938,3.293 0.251,0.437 0.538,0.79 0.842,1.035l0 -4.328 -1.78 0zm3.804 4.256c0.273,-0.241 0.528,-0.567 0.755,-0.963 0.494,-0.857 0.832,-2.001 0.939,-3.293l-1.694 0 0 4.256 0 0z"/>
 </g>
</svg>
